<?xml version="1.0" standalone="yes"?>
<svg xmlns="http://www.w3.org/2000/svg" width="1425" height="531">
<path style="fill:#ffffff; stroke:none;" d="M0 0L0 531L1425 531L1425 0L0 0z"/>
<path style="fill:#720909; stroke:none;" d="M1195 198L1193 198C1192.56 194.307 1192.7 182.984 1188.59 181.535C1183.6 179.774 1172.86 191.526 1168.94 194.363C1149.75 208.249 1125.87 234.831 1125 260C1123.15 257.727 1122.51 255.889 1122 253C1112.62 256.244 1105.45 278.251 1101.32 287C1092.83 304.996 1081.45 320.336 1069.21 336C1064.03 342.638 1059.74 350.853 1053 356C1052.32 358.004 1043.66 366.845 1046.86 368.563C1049.48 369.972 1053.87 365.902 1055.75 364.508C1063.44 358.824 1068.32 351.581 1073.94 343.99C1088.6 324.196 1104.33 305.601 1120.42 287.001C1128.33 277.865 1137.51 265.065 1148 259C1135.01 275.899 1118.87 292.382 1110 312C1128.27 312.958 1153.81 302.542 1171 296.483C1176.86 294.418 1186.54 291.121 1189 285C1183.31 284.499 1178.34 282.95 1173 281C1186.97 272.746 1206.56 272.895 1222 267.957C1238.71 262.612 1256.88 248.893 1270 237.568C1276.98 231.544 1287.11 224.001 1290 215C1277.94 216.574 1265.38 215.649 1254 211C1268.19 207.048 1287.1 210.409 1300 203.53C1312.2 197.022 1317.33 182.069 1329.31 174.677C1335.09 171.105 1353.56 169.713 1356.22 163.506C1359.81 155.111 1343.54 148.97 1338.43 146.011C1313.24 131.411 1292.38 140.596 1269 153C1271.31 147.358 1275.67 143.05 1277 137C1243.41 140.955 1201.77 163.325 1195 198z"/>
<path style="fill:#131010; stroke:none;" d="M1355 165L1356 166L1355 165M1352.67 166.333C1352.22 166.778 1353.28 166.722 1353.33 166.667C1353.78 166.222 1352.72 166.278 1352.67 166.333M1348 167L1351 168L1348 167z"/>
<path style="fill:#ffffff; stroke:none;" d="M1298 168C1290.58 173.583 1277.71 177.167 1272 184C1281.34 183.999 1300.48 181.898 1298 168z"/>
<path style="fill:#131010; stroke:none;" d="M1299 168L1300 169L1299 168M1230.33 169.667C1230.28 169.722 1230.22 170.778 1230.67 170.333C1230.72 170.278 1230.78 169.222 1230.33 169.667M1296 169L1297 170L1296 169z"/>
<path style="fill:#ffffff; stroke:none;" d="M1210 188C1217.11 185.5 1225.05 175.724 1230 170C1220.91 172.059 1213.25 179.243 1210 188z"/>
<path style="fill:#131010; stroke:none;" d="M1338 170L1339 171L1338 170M1335 171L1336 172L1335 171M1333 172L1334 173L1333 172M1331 173L1332 174L1331 173M1328.67 174.333C1328.22 174.778 1329.28 174.722 1329.33 174.667C1329.78 174.222 1328.72 174.278 1328.67 174.333M1287 175L1288 176L1287 175M1285 176L1286 177L1285 176M1322 179L1323 180L1322 179M1317 184L1318 185L1317 184M1313 189L1314 190L1313 189M1196 190L1197 191L1196 190M1310 193L1311 194L1310 193M1192 195L1193 196L1192 195M1195 195L1196 196L1195 195M1305 199L1306 200L1305 199M1304 200L1305 201L1304 200M1303 201L1304 202L1303 201z"/>
<path style="fill:#720909; stroke:none;" d="M698 268C698.245 278.943 709.979 279.527 719 280C711.744 293.035 700.016 313.075 699 328C702.996 327.196 704.651 325.249 707 322C708.347 329.575 702.013 330.603 696 332.819C685.395 336.728 671.902 340.435 663.146 347.795C650.104 358.758 668.463 361.857 677 360.54C681.598 359.83 685.78 358.275 690 356.369C696.168 353.584 702.141 350.383 708 347L708 388C711.897 377.572 703.054 355.031 710.717 346.883C721.847 335.049 751.147 325.38 767 323.453C773.55 322.657 784.521 322.433 787.215 330.065C791.437 342.028 777.664 353.738 774 364L772 359C770.327 370.406 758.129 383.081 761.652 394.989C766.118 410.087 803.649 402.004 811 393C827.454 394.37 848.818 377.772 864 372L863 375L871 368L871 373C874.059 367.197 878.306 364.261 885 364C885.471 360.23 888.907 360.974 892 359.75C897.684 357.5 915.203 348.248 920.889 351.722C925.233 354.376 923 367.485 923 372C925.226 366.045 924 358.315 924 352L929 352L929 369C930.729 364.372 930 358.899 930 354C935.313 362.458 927.792 377.88 938.071 382.467C959.068 391.837 994.467 381.017 1016 376.86C1022.36 375.633 1040.61 374.83 1039 366C1018.01 370.738 994.471 372.255 973 374.104C967.122 374.611 955.604 378.257 950.412 374.715C944.926 370.972 948.857 357.114 944.794 351.125C939.318 343.053 930.096 345.232 930 334C948.528 333.989 986.321 325.482 993 305C981.335 306.418 970.786 313.822 959 315.836C919.439 322.596 892.232 304.333 871 272C892.334 265.522 912.909 245.67 900 223L930 224C930 239.66 929.748 255.343 930.01 271C930.062 274.099 930.286 285.175 935.068 285.175C939.24 285.175 937.003 273.587 937 271L937 224C951.345 224 965.734 224.533 980 222.881C984.724 222.334 991.866 217.955 987.278 212.518C980.631 204.638 955.203 210.496 946 210.941C928.377 211.792 908.531 214.54 891 211.733C883.01 210.454 876.284 205.115 868 204.207C856.406 202.936 844.627 204.588 833 203.305C821.214 202.004 808.853 203 797 203C793.381 203 786.735 201.852 783.756 204.412C779.755 207.85 787.604 214.266 790.011 216.035C799.212 222.795 811.226 221 822 221L822 262C817.227 259.244 812.416 256.179 807 255C809.201 262.359 818.424 260.942 821.283 267.267C826.063 277.845 821.026 294.294 824 306C834.359 301.353 830 279.684 830 270C839.599 272.3 858.658 269.927 866.51 275.15C870.771 277.984 872.965 286.563 875.268 291C880.402 300.889 886.811 310.268 895.003 317.882C903.895 326.146 922.888 328.847 923 342C915.752 342 890.642 348.434 891 347C887.203 349.099 874.413 357.56 871 355C869.366 356.938 868.255 357.855 866 359L866 333C860.652 347.31 870.473 366.66 846 366C843.236 370.899 836.909 372.368 832 374.732C819.795 380.609 806.892 386.28 794 390.461C789.947 391.776 780.335 396.07 776.749 392.279C772.856 388.165 781.253 377.809 782 373C787.719 371.159 795.736 356.837 796 351L798 351C797.736 343.598 804.992 337.299 802.667 328C797.043 305.505 756.374 314.703 741 318.333C736.435 319.411 724.279 324.981 721 322C717.507 325.479 713.787 326.344 709 327C707.526 314.721 714.97 304.168 719.542 293C721.049 289.319 722.464 283.255 726.284 281.264C729.934 279.362 736.925 281 741 281C753.034 281.001 768.329 278.46 779.999 281.402C792.153 284.465 794.33 295.662 809 293C807.588 287.127 802.721 284.418 799 280C804.451 279.798 814.084 275.121 807.476 268.73C802.44 263.86 794.882 267.641 789.07 265.283C781.841 262.349 777.287 248.762 774.692 242C771.51 233.71 766.798 204.27 756.969 203.168C745.816 201.918 743.839 224.283 739.739 233C736.104 240.73 730.466 263.569 722.658 267.283C716.426 270.247 704.845 268 698 268z"/>
<path style="fill:#131010; stroke:none;" d="M834 203C835.506 203.683 836.315 203.826 838 204C836.494 203.317 835.685 203.174 834 203M1285 206L1286 207L1285 206M1270 207L1271 208L1270 207M1272.67 207.333C1272.22 207.778 1273.28 207.722 1273.33 207.667C1273.78 207.222 1272.72 207.278 1272.67 207.333M1277.67 207.333C1277.22 207.778 1278.28 207.722 1278.33 207.667C1278.78 207.222 1277.72 207.278 1277.67 207.333z"/>
<path style="fill:#ffffff; stroke:none;" d="M1169 208C1164.48 213.616 1160.13 219.019 1158 226C1163.3 222.136 1171.05 215.312 1169 208z"/>
<path style="fill:#131010; stroke:none;" d="M1170.33 208.667C1170.28 208.722 1170.22 209.778 1170.67 209.333C1170.72 209.278 1170.78 208.222 1170.33 208.667M972.667 209.333C972.222 209.778 973.278 209.722 973.333 209.667C973.778 209.222 972.722 209.278 972.667 209.333M980 209L981 210L980 209M1259 209L1260 210L1259 209M1255 210L1256 211L1255 210M933 211L936 212L933 211M1166 211L1167 212L1166 211M1262 213L1263 214L1262 213M1271.67 215.333C1271.22 215.778 1272.28 215.722 1272.33 215.667C1272.78 215.222 1271.72 215.278 1271.67 215.333M1285.67 215.333C1285.22 215.778 1286.28 215.722 1286.33 215.667C1286.78 215.222 1285.72 215.278 1285.67 215.333M1289 218L1290 219L1289 218z"/>
<path style="fill:#ffffff; stroke:none;" d="M750 219C744.234 235.607 734.817 251.071 730 268C743.507 268 758.89 269.566 772 266C764.908 251.458 758.771 232.187 750 219z"/>
<path style="fill:#131010; stroke:none;" d="M1288 219L1289 220L1288 219M1159.33 220.667C1159.28 220.722 1159.22 221.778 1159.67 221.333C1159.72 221.278 1159.78 220.222 1159.33 220.667M1287 220L1288 221L1287 220z"/>
<path style="fill:#ffffff; stroke:none;" d="M830 221L830 265C848.61 267.998 869.168 273.983 884.972 259.773C891.321 254.064 897.499 243.442 892.155 235.031C881.802 218.733 846.541 221 830 221z"/>
<path style="fill:#131010; stroke:none;" d="M1163 221L1164 222L1163 221M1286 221L1287 222L1286 221z"/>
<path style="fill:#ffffff; stroke:none;" d="M899 222L900 223L899 222z"/>
<path style="fill:#131010; stroke:none;" d="M1162 222L1163 223L1162 222M1285 222L1286 223L1285 222M1161 223L1162 224L1161 223z"/>
<path style="fill:#ffffff; stroke:none;" d="M1217 223C1220.77 234.404 1248.73 239.507 1254 227C1240.78 227.692 1229.83 226.523 1217 223z"/>
<path style="fill:#131010; stroke:none;" d="M1284 223L1285 224L1284 223M1160 224L1161 225L1160 224M1283 224L1284 225L1283 224M1159 225L1160 226L1159 225M1282 225L1283 226L1282 225M1281 226L1282 227L1281 226M1280 227L1281 228L1280 227M769 228L770 229L769 228M745.333 229.667C745.277 229.722 745.222 230.778 745.667 230.333C745.722 230.278 745.778 229.222 745.333 229.667M1220.67 229.333C1220.22 229.778 1221.28 229.722 1221.33 229.667C1221.78 229.222 1220.72 229.278 1220.67 229.333M1276 231L1277 232L1276 231M1226 232L1227 233L1226 232M1275 232L1276 233L1275 232M1274 233L1275 234L1274 233M757 238L758 239L757 238M1268 238L1269 239L1268 238M904 240L905 241L904 240M1261 244L1262 245L1261 244M1257 247L1258 248L1257 247M1255 248L1256 249L1255 248M737 249L738 250L737 249M1251.67 250.333C1251.22 250.778 1252.28 250.722 1252.33 250.667C1252.78 250.222 1251.72 250.278 1251.67 250.333M1248.67 252.333C1248.22 252.778 1249.28 252.722 1249.33 252.667C1249.78 252.222 1248.72 252.278 1248.67 252.333z"/>
<path style="fill:#ffffff; stroke:none;" d="M1172 257C1182.78 261.48 1198.01 264.218 1206 254C1195.14 254.833 1182.58 254.614 1172 257z"/>
<path style="fill:#131010; stroke:none;" d="M1245.67 254.333C1245.22 254.778 1246.28 254.722 1246.33 254.667C1246.78 254.222 1245.72 254.278 1245.67 254.333M1150 256L1151 257L1150 256M1242.67 256.333C1242.22 256.778 1243.28 256.722 1243.33 256.667C1243.78 256.222 1242.72 256.278 1242.67 256.333M813 257L814 258L813 257M1148 258L1149 259L1148 258M1145.67 259.333C1145.22 259.778 1146.28 259.722 1146.33 259.667C1146.78 259.222 1145.72 259.278 1145.67 259.333z"/>
<path style="fill:#ffffff; stroke:none;" d="M1147 259L1148 260L1147 259z"/>
<path style="fill:#131010; stroke:none;" d="M1232.67 262.333C1232.22 262.778 1233.28 262.722 1233.33 262.667C1233.78 262.222 1232.72 262.278 1232.67 262.333M887 263L888 264L887 263M732.667 268.333C732.222 268.778 733.278 268.722 733.333 268.667C733.778 268.222 732.722 268.278 732.667 268.333M1137 268L1138 269L1137 268M1140 268L1141 269L1140 268M1136 269L1137 270L1136 269M1216 269L1217 270L1216 269M1135 270L1136 271L1135 270M1212 270L1213 271L1212 270M1134 271L1135 272L1134 271M1133 272L1134 273L1133 272M1203 272L1204 273L1203 272M1132 273L1133 274L1132 273M1199 273L1200 274L1199 273M1131 274L1132 275L1131 274M1130 275L1131 276L1130 275M1190 275L1191 276L1190 275M1185 276L1186 277L1185 276M1181 277L1182 278L1181 277M1177 278L1178 279L1177 278M1126 279L1127 280L1126 279M1174 279L1175 280L1174 279M728.667 280.333C728.222 280.778 729.278 280.722 729.333 280.667C729.778 280.222 728.722 280.278 728.667 280.333M1173 280L1174 281L1173 280M800 282L801 283L800 282M1178.67 283.333C1178.22 283.778 1179.28 283.722 1179.33 283.667C1179.78 283.222 1178.72 283.278 1178.67 283.333M1184 284L1185 285L1184 284M1121 285L1122 286L1121 285M1127 285L1128 286L1127 285M1120 286L1121 287L1120 286M1189 286L1190 287L1189 286M715 287L716 288L715 287M1125 288C1124.01 289.478 1124 289.203 1124 291C1125.29 289.557 1125.4 289.766 1125 288M882 289L883 290L882 289M1182.67 290.333C1182.22 290.778 1183.28 290.722 1183.33 290.667C1183.78 290.222 1182.72 290.278 1182.67 290.333M806 293L807 294L806 293M1120 295L1121 296L1120 295M1173 295L1174 296L1173 295M1167 297L1168 298L1167 297M1117 298L1118 299L1117 298M1156 300L1157 301L1156 300M1113 304L1114 305L1113 304M1143 304L1144 305L1143 304M1139 305L1140 306L1139 305M1102 306L1103 307L1102 306M1135 306L1136 307L1135 306M1101 307L1102 308L1101 307M1131 307L1132 308L1131 307M1111 308L1112 309L1111 308M1127 308L1128 309L1127 308M1099 310L1100 311L1099 310M1114 311L1115 312L1114 311M1112 312L1113 313L1112 312M1096.33 313.667C1096.28 313.722 1096.22 314.778 1096.67 314.333C1096.72 314.278 1096.78 313.222 1096.33 313.667z"/>
<path style="fill:#720909; stroke:none;" d="M113 314C114.506 314.683 115.315 314.826 117 315C115.494 314.317 114.685 314.174 113 314z"/>
<path style="fill:#131010; stroke:none;" d="M93 379C82.6923 406.582 132.338 405.374 141.542 385.999C154.991 357.686 104.067 354.259 101.301 333C100.035 323.273 109.819 319.103 118 320.257C127.318 321.572 133.873 327.908 138 336C139.794 331.197 138.307 326.012 139 321C129.564 316.082 117.538 312.815 107 315.837C95.1588 319.233 87.1638 332.34 94.0886 343.999C102.525 358.204 128.877 362.402 132.938 379C135.578 389.792 124.967 395.109 115.997 394.939C105.591 394.741 97.5494 387.919 93 379M703 314L704 315L703 314M762 314L763 315L762 314z"/>
<path style="fill:#720909; stroke:none;" d="M107 315L108 316L107 315M123.667 315.333C123.222 315.778 124.278 315.722 124.333 315.667C124.778 315.222 123.722 315.278 123.667 315.333M104 316L105 317L104 316M127.667 316.333C127.222 316.778 128.278 316.722 128.333 316.667C128.778 316.222 127.722 316.278 127.667 316.333M102 317L103 318L102 317M131 317L132 318L131 317z"/>
<path style="fill:#131010; stroke:none;" d="M709 327C717.043 326.281 719.905 323.797 724 317C714.64 317 706.556 315.331 709 327z"/>
<path style="fill:#720909; stroke:none;" d="M724 317L725 318L724 317M100 318L101 319L100 318M132 318L135 319L132 318M723 318L724 319L723 318z"/>
<path style="fill:#131010; stroke:none;" d="M740 318L741 319L740 318z"/>
<path style="fill:#720909; stroke:none;" d="M99 319L100 320L99 319M722 319L723 320L722 319M109 320L110 321L109 320M119.667 320.333C119.222 320.778 120.278 320.722 120.333 320.667C120.778 320.222 119.722 320.278 119.667 320.333M137 320L138 321L137 320M721 320L722 321L721 320M106 321L107 322L106 321M126 322L127 323L126 322M138 322L138 326C138.6 324.268 138.6 323.732 138 322z"/>
<path style="fill:#131010; stroke:none;" d="M1090 322L1091 323L1090 322z"/>
<path style="fill:#720909; stroke:none;" d="M103 323L104 324L103 323M127 323L128 324L127 323z"/>
<path style="fill:#ffffff; stroke:none;" d="M764.996 323.565C752.788 325.657 740.11 330.745 729 336.105C724.618 338.219 719.418 340.467 719.143 346.007C718.941 350.08 721.029 352.459 725.015 352.899C736.652 354.183 757.678 356.214 768.784 352.588C774.855 350.606 775.612 321.746 764.996 323.565z"/>
<path style="fill:#131010; stroke:none;" d="M772 323L772 353L736 353C731.957 353 725.007 354.295 721.521 351.85C718.527 349.751 719.021 345.189 719 342C700.606 349.784 712.246 381.247 704 398L725 398C719.768 392.068 713.078 366.072 721.521 360.15C727.02 356.292 741.444 359 748 359C755.135 359 770.087 355.854 773 364C783.841 351.455 783 339.634 783 324C779.312 323.518 775.725 323.051 772 323z"/>
<path style="fill:#720909; stroke:none;" d="M94 324L95 325L94 324M129 324L130 325L129 324M93 325L94 326L93 325M102 325L103 326L102 325M130 325L131 326L130 325z"/>
<path style="fill:#131010; stroke:none;" d="M704 325L705 326L704 325z"/>
<path style="fill:#ffffff; stroke:none;" d="M784 325C782.022 332.272 783 340.497 783 348C788.055 341.543 790.484 331.158 784 325z"/>
<path style="fill:#131010; stroke:none;" d="M1088 325L1089 326L1088 325z"/>
<path style="fill:#720909; stroke:none;" d="M131 326L132 327L131 326M380 326L380 336C383.089 334.442 384.91 332.758 387 330C384.828 331.553 382.946 333.165 381 335C380.994 331.864 381.103 328.947 380 326z"/>
<path style="fill:#131010; stroke:none;" d="M381 326L381 335C388.044 330.133 392.505 329 401 329C401 343.072 402.519 358.127 400 372L408 372C405.481 358.127 407 343.072 407 329C415.311 329.001 420.033 330.408 427 335L427 326L381 326z"/>
<path style="fill:#720909; stroke:none;" d="M828 326L829 327L828 326M92 327L93 328L92 327M101 327L102 328L101 327M132 327L133 328L132 327M235 327L237 330C237.699 328.007 236.994 327.847 235 327z"/>
<path style="fill:#131010; stroke:none;" d="M344 365C344.576 367.905 344.576 370.095 344 373C353.384 375.542 384.727 375.931 371.675 357.145C366.409 349.565 352.432 347.704 350.083 338.004C346.837 324.6 366.392 333.52 370 338C374.771 325.149 350.519 324.623 346.09 334.031C338.812 349.494 363.428 352.698 367.71 363.442C371.448 372.821 357.214 374.273 351.725 371.218C348.806 369.594 346.756 366.84 344 365z"/>
<path style="fill:#720909; stroke:none;" d="M356 327C357.764 327.703 359.083 327.884 361 328C359.236 327.297 357.917 327.116 356 327M480 327C483.236 328.21 486.564 327.998 490 328C486.764 326.79 483.436 327.002 480 327z"/>
<path style="fill:#131010; stroke:none;" d="M503 364C498.083 367.096 493.957 371.531 488 372.658C458.437 378.252 458.31 325.29 488 330.379C494.066 331.419 498.102 335.721 503 339C497.762 315.088 457.971 330.075 458.291 351.997C458.608 373.693 498.525 387.387 503 364z"/>
<path style="fill:#720909; stroke:none;" d="M524 327C525.764 327.703 527.083 327.884 529 328C527.236 327.297 525.917 327.116 524 327z"/>
<path style="fill:#131010; stroke:none;" d="M514 367C514.704 380.765 538.858 378.199 541.926 366.452C545.662 352.145 523.873 349.753 519.323 339.972C512.716 325.769 534.609 333.275 539 336C538.925 333.501 538.667 331.407 538 329C534.293 328.797 530.737 327.674 527 327.832C524.658 327.931 522.235 328.198 520.028 329.028C497.665 337.44 532.031 355.591 535.362 362.994C542.23 378.256 519.14 370.511 514 367M615 366C615.315 379.97 639.958 378.953 643.469 366.885C647.908 351.623 624.623 349.901 620.414 338.804C614.646 323.593 638.716 335.637 642 338C641.328 324.841 618.885 323.795 615.266 336.008C611.047 350.241 633.51 352.831 637.556 363.201C640.911 371.796 628.805 374.711 623.06 371.767C620.147 370.274 617.748 367.779 615 366z"/>
<path style="fill:#720909; stroke:none;" d="M626 327C627.764 327.703 629.083 327.884 631 328C629.236 327.297 627.916 327.116 626 327z"/>
<path style="fill:#131010; stroke:none;" d="M828 327C821.02 342.809 811.788 358.868 806 375C814.12 374.569 811.827 367.806 817.458 364.15C823.451 360.258 839.656 361.372 840 370C847.303 369.938 845.105 364.208 843.134 359.305C839.016 349.061 834.982 335.537 828 327z"/>
<path style="fill:#720909; stroke:none;" d="M133 328L134 329L133 328M159 328L159 339C160.752 337.67 161.67 336.753 163 335C161.584 335.472 161.186 335.814 160 337C159.994 333.864 160.103 330.947 159 328z"/>
<path style="fill:#131010; stroke:none;" d="M160 328L160 337C167.222 332.404 171.357 331 180 331C180 345.072 181.519 360.127 179 374L187 374C185.308 359.77 186 345.318 186 331C194.833 331.017 200.159 331.979 206 339C206.985 335.329 206.832 331.778 207 328L160 328M235 328C229.628 344.695 220.885 359.52 213 375C221.424 374.564 219.538 367.887 225.374 364.15C229.177 361.714 237.622 362.612 241.962 363.101C250.938 364.114 247.899 375.905 259 376C251.585 360.043 243.601 344.373 237 328L235 328M267 328L267 338C274.616 333.287 278.792 331.005 288 331C286.936 342.764 293.129 365.269 284 374C287.605 374.448 291.352 374.007 295 374C292.481 360.127 294 345.072 294 331C302.53 331.016 307.816 331.762 313 339C319.461 321.705 277.356 328 267 328z"/>
<path style="fill:#720909; stroke:none;" d="M312.667 328.333C312.222 328.778 313.278 328.722 313.333 328.667C313.778 328.222 312.722 328.278 312.667 328.333M322 328C322.545 329.635 322.365 329.455 324 330L324 328L322 328z"/>
<path style="fill:#131010; stroke:none;" d="M324 328C325.751 341.415 328.54 362.836 322 375L334 375C329.055 365.803 326.98 336.618 335 329C331.479 327.684 327.733 328 324 328z"/>
<path style="fill:#720909; stroke:none;" d="M365 328L366 329L365 328M427 328C426.912 331.069 426.55 333.981 426 337C428.025 334.037 428.248 331.369 427 328M437 328L438 329L437 328z"/>
<path style="fill:#131010; stroke:none;" d="M438 328C441.284 341.11 443.283 362.679 437 375L449 375C444.6 365.422 441.512 336.631 450 329C446.197 327.579 442.028 328 438 328z"/>
<path style="fill:#720909; stroke:none;" d="M494.667 328.333C494.222 328.778 495.278 328.722 495.333 328.667C495.778 328.222 494.722 328.278 494.667 328.333M520 328L521 329L520 328M533.667 328.333C533.222 328.778 534.278 328.722 534.333 328.667C534.778 328.222 533.722 328.278 533.667 328.333z"/>
<path style="fill:#131010; stroke:none;" d="M592 328C596.618 335.783 599.33 368.832 591 374C595.472 375.671 601.274 375.428 606 375C596.635 366.548 599.154 338.55 604 328L592 328z"/>
<path style="fill:#720909; stroke:none;" d="M604 328L605 329L604 328M622 328L623 329L622 328M635 328L636 329L635 328z"/>
<path style="fill:#131010; stroke:none;" d="M700 328L701 329L700 328z"/>
<path style="fill:#720909; stroke:none;" d="M827 328L828 329L827 328M829 328L830 329L829 328z"/>
<path style="fill:#131010; stroke:none;" d="M1085.33 328.667C1085.28 328.722 1085.22 329.778 1085.67 329.333C1085.72 329.278 1085.78 328.222 1085.33 328.667z"/>
<path style="fill:#720909; stroke:none;" d="M134 329L135 330L134 329M206.333 329.667C206.278 329.722 206.222 330.778 206.667 330.333C206.722 330.278 206.778 329.222 206.333 329.667M368 329L369 330L368 329M388.667 329.333C388.222 329.778 389.278 329.722 389.333 329.667C389.778 329.222 388.722 329.278 388.667 329.333M400 329L401 330L400 329M407 329L408 330L407 329M417.667 329.333C417.222 329.778 418.278 329.722 418.333 329.667C418.778 329.222 417.722 329.278 417.667 329.333M473 329L474 330L473 329M498 329L499 330L498 329M518 329L519 330L518 329M535.667 329.333C535.222 329.778 536.278 329.722 536.333 329.667C536.778 329.222 535.722 329.278 535.667 329.333M593 329L594 330L593 329M620 329L621 330L620 329M637.667 329.333C637.222 329.778 638.278 329.722 638.333 329.667C638.778 329.222 637.722 329.278 637.667 329.333z"/>
<path style="fill:#131010; stroke:none;" d="M863 329C867.221 338.521 866 348.763 866 359C874.262 356.278 907.261 342.857 887.958 331.442C880.478 327.018 871.164 330.841 863 329z"/>
<path style="fill:#720909; stroke:none;" d="M864 329C867.803 330.421 871.972 330 876 330C872.197 328.579 868.028 329 864 329M881.667 329.333C881.222 329.778 882.278 329.722 882.333 329.667C882.778 329.222 881.722 329.278 881.667 329.333M91 330L91 339C92.1535 335.91 92.1535 333.09 91 330M234 330L235 331L234 330M348 330L349 331L348 330M354 330L355 331L354 330M360 330L361 331L360 330M471 330L472 331L471 330M489 330L490 331L489 330M500 330L501 331L500 330M523 330L524 331L523 330M528.667 330.333C528.222 330.778 529.278 330.722 529.333 330.667C529.778 330.222 528.722 330.278 528.667 330.333M618 330L619 331L618 330M624.667 330.333C624.222 330.778 625.278 330.722 625.333 330.667C625.778 330.222 624.722 330.278 624.667 330.333M630 330L631 331L630 330M640 330L641 331L640 330M830 330L831 331L830 330M886 330L887 331L886 330M167.667 331.333C167.222 331.778 168.278 331.722 168.333 331.667C168.778 331.222 167.722 331.278 167.667 331.333M179 331L180 332L179 331M186 331L187 332L186 331M197 331L198 332L197 331M238 331L239 332L238 331M287 331L288 332L287 331M305 331L306 332L305 331M324 331L325 332L324 331M347 331L348 332L347 331M351.667 331.333C351.222 331.778 352.278 331.722 352.333 331.667C352.778 331.222 351.722 331.278 351.667 331.333M363 331L364 332L363 331M422 331L423 332L422 331M439 331L440 332L439 331M469 331L470 332L469 331M475 331L476 332L475 331M492 331L493 332L492 331M501.333 331.667C501.278 331.722 501.222 332.778 501.667 332.333C501.722 332.278 501.778 331.222 501.333 331.667M520 331L521 332L520 331M532 331L533 332L532 331M539 331L539 338C539.955 335.422 539.955 333.578 539 331M601 331L602 332L601 331M617 331L618 332L617 331M622 331L623 332L622 331M633.667 331.333C633.222 331.778 634.278 331.722 634.333 331.667C634.778 331.222 633.722 331.278 633.667 331.333M872 331C870.261 337.394 871 344.407 871 351C873.056 345.498 872.723 336.821 872 331z"/>
<path style="fill:#ffffff; stroke:none;" d="M872 351C879.759 350.95 892.123 344.847 885.155 335.206C882.941 332.143 875.095 328.849 872.717 333.413C870.411 337.841 872 346.091 872 351z"/>
<path style="fill:#720909; stroke:none;" d="M879.667 331.333C879.222 331.778 880.278 331.722 880.333 331.667C880.778 331.222 879.722 331.278 879.667 331.333M888 331L889 332L888 331z"/>
<path style="fill:#131010; stroke:none;" d="M947 332C957.129 338.64 963.999 347.129 959.735 360C958.878 362.587 948.654 373.317 949.365 374.099C952.487 377.532 962.04 367.995 963.618 365.972C973.857 352.85 964.72 329.823 947 332z"/>
<path style="fill:#720909; stroke:none;" d="M136 332L137 333L136 332M165 332L166 333L165 332M233 332L234 333L233 332M273 332L274 333L273 332M346 332L347 333L346 332M350.333 332.667C350.278 332.722 350.222 333.778 350.667 333.333C350.722 333.278 350.778 332.222 350.333 332.667M365 332L366 333L365 332M423 332L424 333L423 332M494 332L495 333L494 332M616 332L617 333L616 332M621 332L622 333L621 332M635 332L636 333L635 332M890 332L891 333L890 332M955 332L956 333L955 332M164 333L165 334L164 333M201 333L202 334L201 333M239.333 333.667C239.278 333.722 239.222 334.778 239.667 334.333C239.722 334.278 239.778 333.222 239.333 333.667M309 333L310 334L309 333M345 333L346 334L345 333M366 333L367 334L366 333M424 333L425 334L424 333M472 333L473 334L472 333M496 333L497 334L496 333M535 333L536 334L535 333M620.333 333.667C620.278 333.722 620.222 334.778 620.667 334.333C620.722 334.278 620.778 333.222 620.333 333.667M825 333L826 334L825 333M884 333L885 334L884 333M891 333L892 334L891 333z"/>
<path style="fill:#131010; stroke:none;" d="M924 333L924 342L929 342L929 333L924 333z"/>
<path style="fill:#ffffff; stroke:none;" d="M930 334C930.032 345.353 938.132 343.163 944.138 351.125C948.676 357.141 948 364.897 948 372C961.983 367.524 966.177 345.025 953.855 335.921C947.096 330.927 937.72 333.984 930 334z"/>
<path style="fill:#720909; stroke:none;" d="M949 333L950 334L949 333M957 333L958 334L957 333M101.333 334.667C101.278 334.722 101.222 335.778 101.667 335.333C101.722 335.278 101.778 334.222 101.333 334.667M202 334L203 335L202 334M232.333 334.667C232.278 334.722 232.222 335.778 232.667 335.333C232.722 335.278 232.778 334.222 232.333 334.667M425 334L426 335L425 334M471 334L472 335L471 334M497 334L498 335L497 334M518.333 334.667C518.278 334.722 518.222 335.778 518.667 335.333C518.722 335.278 518.778 334.222 518.333 334.667M536 334L537 335L536 334M615 334L616 335L615 334M885 334L886 335L885 334M203 335L204 336L203 335M344 335L344 342C344.955 339.422 344.955 337.578 344 335M349 335L349 339C349.6 337.268 349.6 336.732 349 335M368 335L369 336L368 335M470 335L471 336L470 335M513 335L514 336L513 335M537 335L538 336L537 335M619 335L619 339C619.6 337.268 619.6 336.732 619 335z"/>
<path style="fill:#131010; stroke:none;" d="M689 335L690 336L689 335z"/>
<path style="fill:#720909; stroke:none;" d="M824 335L825 336L824 335M832 335L833 336L832 335M953 335L954 336L953 335M960 335L961 336L960 335M204 336L205 337L204 336M231.333 336.667C231.278 336.722 231.222 337.778 231.667 337.333C231.722 337.278 231.778 336.222 231.333 336.667M240 336L241 337L240 336M469 336L470 337L469 336M499 336L500 337L499 336M639 336L640 337L639 336M886 336L887 337L886 336M961 336L962 337L961 336z"/>
<path style="fill:#131010; stroke:none;" d="M1079 336L1080 337L1079 336z"/>
<path style="fill:#720909; stroke:none;" d="M102 337L103 338L102 337M268 337L269 338L268 337M463 337L464 338L463 337M500 337L501 338L500 337z"/>
<path style="fill:#131010; stroke:none;" d="M538 337L539 338L538 337z"/>
<path style="fill:#720909; stroke:none;" d="M614 337L614 341C614.6 339.268 614.6 338.732 614 337M640 337L641 338L640 337M833 337L834 338L833 337M893 337L893 342C893.722 339.974 893.722 339.026 893 337M962 337L963 338L962 337M234.667 338.333C234.222 338.778 235.278 338.722 235.333 338.667C235.778 338.222 234.722 338.278 234.667 338.333M241 338L242 339L241 338M267 338L268 339L267 338M462 338L463 339L462 338M468 338L469 339L468 338M501 338L502 339L501 338M518.333 338.667C518.278 338.722 518.222 339.778 518.667 339.333C518.722 339.278 518.778 338.222 518.333 338.667M823 338L824 339L823 338M827 338L826 340C827.263 339.029 827.392 339.306 827 338M963 338L964 339L963 338M103 339L104 340L103 339M230.333 339.667C230.278 339.722 230.222 340.778 230.667 340.333C230.722 340.278 230.778 339.222 230.333 339.667z"/>
<path style="fill:#ffffff; stroke:none;" d="M234 339C231.298 345.911 227.439 352.701 226 360L244 360C242.609 352.65 238.852 345.874 236 339L234 339z"/>
<path style="fill:#720909; stroke:none;" d="M620.333 339.667C620.278 339.722 620.222 340.778 620.667 340.333C620.722 340.278 620.778 339.222 620.333 339.667z"/>
<path style="fill:#131010; stroke:none;" d="M679 339L680 340L679 339z"/>
<path style="fill:#ffffff; stroke:none;" d="M827 339C823.362 345.536 820.147 352.832 818 360L837 360C834.323 353.153 831.976 344.467 827 339z"/>
<path style="fill:#720909; stroke:none;" d="M957 339L958 340L957 339M104 340L105 341L104 340M233 340L234 341L233 340M236 340L237 341L236 340M242.333 340.667C242.278 340.722 242.222 341.778 242.667 341.333C242.722 341.278 242.778 340.222 242.333 340.667M350 340L351 341L350 340M822 340L823 341L822 340M92 341L93 342L92 341M105 341L106 342L105 341M460 341L461 342L460 341M513.333 341.667C513.278 341.722 513.222 342.778 513.667 342.333C513.722 342.278 513.778 341.222 513.333 341.667M519 341L520 342L519 341M825 341L826 342L825 341M958 341L959 342L958 341M965 341L966 342L965 341z"/>
<path style="fill:#131010; stroke:none;" d="M1075 341L1076 342L1075 341z"/>
<path style="fill:#720909; stroke:none;" d="M106 342L107 343L106 342M229 342L230 343L229 342M232 342L233 343L232 342M237 342L238 343L237 342M243.333 342.667C243.278 342.722 243.222 343.778 243.667 343.333C243.722 343.278 243.778 342.222 243.333 342.667M466 342L467 343L466 342M520 342L521 343L520 342M615 342L616 343L615 342z"/>
<path style="fill:#131010; stroke:none;" d="M672 342L673 343L672 342z"/>
<path style="fill:#720909; stroke:none;" d="M835 342L836 343L835 342z"/>
<path style="fill:#131010; stroke:none;" d="M918 342L919 343L918 342z"/>
<path style="fill:#720909; stroke:none;" d="M93 343L94 344L93 343M107 343L108 344L107 343M345 343L346 344L345 343M521 343L522 344L521 343M821 343L822 344L821 343M824 343L825 344L824 343M886 343L887 344L886 343M959 343L960 344L959 343M354 344L355 345L354 344M459.333 344.667C459.278 344.722 459.222 345.778 459.667 345.333C459.722 345.278 459.778 344.222 459.333 344.667M514 344L515 345L514 344M522 344L523 345L522 344M616 344L617 345L616 344M624 344L625 345L624 344M830 344L831 345L830 344M836 344L837 345L836 344M892 344L893 345L892 344M94 345L95 346L94 345M110 345L111 346L110 345M231 345L232 346L231 345M244 345L245 346L244 345M346 345L347 346L346 345M355 345L356 346L355 345M515 345L516 346L515 345M524 345L525 346L524 345M625 345L626 346L625 345M820 345L821 346L820 345z"/>
<path style="fill:#131010; stroke:none;" d="M1072 345L1073 346L1072 345z"/>
<path style="fill:#720909; stroke:none;" d="M95 346L96 347L95 346M111 346L112 347L111 346M227.333 346.667C227.278 346.722 227.222 347.778 227.667 347.333C227.722 347.278 227.778 346.222 227.333 346.667M347 346L348 347L347 346M356.667 346.333C356.222 346.778 357.278 346.722 357.333 346.667C357.778 346.222 356.722 346.278 356.667 346.333M465.333 346.667C465.278 346.722 465.222 347.778 465.667 347.333C465.722 347.278 465.778 346.222 465.333 346.667M516 346L517 347L516 346M525 346L526 347L525 346M627 346L628 347L627 346M823 346L824 347L823 346M831 346L832 347L831 346M837 346L838 347L837 346M96 347L97 348L96 347M113 347L114 348L113 347M230 347L231 348L230 347M239 347L240 348L239 347M245 347L246 348L245 347M348 347L349 348L348 347M358 347L359 348L358 347M517 347L518 348L517 347M527 347L528 348L527 347z"/>
<path style="fill:#131010; stroke:none;" d="M663 347L664 348L663 347M799 347L800 348L799 347z"/>
<path style="fill:#720909; stroke:none;" d="M884 347L885 348L884 347z"/>
<path style="fill:#131010; stroke:none;" d="M895 347L896 348L895 347z"/>
<path style="fill:#720909; stroke:none;" d="M960 347L961 348L960 347M967.333 347.667C967.278 347.722 967.222 348.778 967.667 348.333C967.722 348.278 967.778 347.222 967.333 347.667M97 348L98 349L97 348M114 348L115 349L114 348M360 348L361 349L360 348M458.333 348.667C458.278 348.722 458.222 349.778 458.667 349.333C458.722 349.278 458.778 348.222 458.333 348.667M518 348L519 349L518 348M620 348L621 349L620 348M630 348L631 349L630 348z"/>
<path style="fill:#131010; stroke:none;" d="M705 348L706 349L705 348z"/>
<path style="fill:#720909; stroke:none;" d="M822 348L823 349L822 348M883 348L884 349L883 348M98 349L99 350L98 349M116 349L117 350L116 349M226 349L227 350L226 349M229 349L230 350L229 349M240 349L241 350L240 349M246.333 349.667C246.278 349.722 246.222 350.778 246.667 350.333C246.722 350.278 246.778 349.222 246.333 349.667M530 349L531 350L530 349M621 349L622 350L621 349M632 349L633 350L632 349z"/>
<path style="fill:#131010; stroke:none;" d="M703 349L704 350L703 349M797.667 349.333C797.222 349.778 798.278 349.722 798.333 349.667C798.778 349.222 797.722 349.278 797.667 349.333z"/>
<path style="fill:#720909; stroke:none;" d="M832 349L833 350L832 349M838 349L839 350L838 349z"/>
<path style="fill:#131010; stroke:none;" d="M889 349L890 350L889 349z"/>
<path style="fill:#720909; stroke:none;" d="M99 350L100 351L99 350M352 350L353 351L352 350M363 350L364 351L363 350M521 350L522 351L521 350M532 350L533 351L532 350M633 350L634 351L633 350M818 350L819 351L818 350M821 350L822 351L821 350z"/>
<path style="fill:#131010; stroke:none;" d="M1068.33 350.667C1068.28 350.722 1068.22 351.778 1068.67 351.333C1068.72 351.278 1068.78 350.222 1068.33 350.667z"/>
<path style="fill:#720909; stroke:none;" d="M100 351L101 352L100 351M119 351L120 352L119 351M225 351L226 352L225 351M247.333 351.667C247.278 351.722 247.222 352.778 247.667 352.333C247.722 352.278 247.778 351.222 247.333 351.667M364.667 351.333C364.222 351.778 365.278 351.722 365.333 351.667C365.778 351.222 364.722 351.278 364.667 351.333M522 351L523 352L522 351M624 351L625 352L624 351M635 351L636 352L635 351z"/>
<path style="fill:#131010; stroke:none;" d="M699 351L700 352L699 351M796.667 351.333C796.222 351.778 797.278 351.722 797.333 351.667C797.778 351.222 796.722 351.278 796.667 351.333z"/>
<path style="fill:#720909; stroke:none;" d="M833 351L834 352L833 351M839 351L840 352L839 351z"/>
<path style="fill:#131010; stroke:none;" d="M918 351L921 352L918 351z"/>
<path style="fill:#720909; stroke:none;" d="M102 352L103 353L102 352M121 352L122 353L121 352M228 352L229 353L228 352M355 352L356 353L355 352M366 352L367 353L366 352M465 352L466 353L465 352M524 352L525 353L524 352M720 352L721 353L720 352M771 352L772 353L771 352M817 352L818 353L817 352z"/>
<path style="fill:#131010; stroke:none;" d="M913 352L914 353L913 352M924 352C924 360.286 924.163 367.954 922 376L932 376C930.671 367.655 929 360.689 929 352L924 352z"/>
<path style="fill:#720909; stroke:none;" d="M103 353L104 354L103 353M458.333 353.667C458.278 353.722 458.222 354.778 458.667 354.333C458.722 354.278 458.778 353.222 458.333 353.667M525 353L526 354L525 353M536 353L537 354L536 353M627 353L628 354L627 353M820 353L821 354L820 353M840 353L841 354L840 353M124 354L125 355L124 354M227 354L228 355L227 354M242 354L243 355L242 354M248 354L249 355L248 354M358 354L359 355L358 354M527 354L528 355L527 354M537 354L538 355L537 354M639 354L640 355L639 354z"/>
<path style="fill:#131010; stroke:none;" d="M693 354L694 355L693 354z"/>
<path style="fill:#720909; stroke:none;" d="M816 354L817 355L816 354z"/>
<path style="fill:#ffffff; stroke:none;" d="M872 357C873.924 355.999 874.099 355.922 875 354C872.636 354.482 872.482 354.636 872 357M930 354C930 359.53 928.12 368.391 933 372C933 365.877 934.228 358.899 930 354z"/>
<path style="fill:#720909; stroke:none;" d="M106 355L107 356L106 355M223 355L224 356L223 355M360 355L361 356L360 355M465.333 355.667C465.278 355.722 465.222 356.778 465.667 356.333C465.722 356.278 465.778 355.222 465.333 355.667M538 355L539 356L538 355M630 355L631 356L630 355M640 355L641 356L640 355M819 355L820 356L819 355M841 355L842 356L841 355M967.333 355.667C967.278 355.722 967.222 356.778 967.667 356.333C967.722 356.278 967.778 355.222 967.333 355.667z"/>
<path style="fill:#131010; stroke:none;" d="M1065 355L1066 356L1065 355z"/>
<path style="fill:#720909; stroke:none;" d="M107 356L108 357L107 356M127 356L128 357L127 356M226 356L227 357L226 356M243 356L244 357L243 356M249 356L250 357L249 356M361 356L362 357L361 356M530 356L531 357L530 356M539 356L540 357L539 356z"/>
<path style="fill:#131010; stroke:none;" d="M689 356L690 357L689 356z"/>
<path style="fill:#720909; stroke:none;" d="M815 356L816 357L815 356M835 356L836 357L835 356z"/>
<path style="fill:#131010; stroke:none;" d="M1064 356L1065 357L1064 356z"/>
<path style="fill:#720909; stroke:none;" d="M109 357L110 358L109 357M222.333 357.667C222.278 357.722 222.222 358.778 222.667 358.333C222.722 358.278 222.778 357.222 222.333 357.667M531 357L532 358L531 357M540 357L541 358L540 357M633 357L634 358L633 357M960 357L961 358L960 357M110 358L111 359L110 358M130 358L131 359L130 358M364 358L365 359L364 358M459 358L460 359L459 358M634 358L635 359L634 358M814 358L815 359L814 358M836 358L837 359L836 358M842 358L843 359L842 358M112 359L113 360L112 359M131 359L132 360L131 359M221.333 359.667C221.278 359.722 221.222 360.778 221.667 360.333C221.722 360.278 221.778 359.222 221.333 359.667M225 359L226 360L225 359M244 359L245 360L244 359M365 359L366 360L365 359M541 359L542 360L541 359z"/>
<path style="fill:#131010; stroke:none;" d="M792 359L793 360L792 359z"/>
<path style="fill:#720909; stroke:none;" d="M113 360L114 361L113 360M366 360L367 361L366 360M466 360L467 361L466 360M643 360L644 361L643 360z"/>
<path style="fill:#131010; stroke:none;" d="M662 360L663 361L662 360M677 360L678 361L677 360z"/>
<path style="fill:#720909; stroke:none;" d="M843 360L844 361L843 360z"/>
<path style="fill:#131010; stroke:none;" d="M907 376C905.087 373.182 888.188 359.359 885.961 361.863C878.977 369.714 903.106 375.947 907 376z"/>
<path style="fill:#720909; stroke:none;" d="M966 360L967 361L966 360M115 361L116 362L115 361M134 361L135 362L134 361M460 361L461 362L460 361M637 361L638 362L637 361z"/>
<path style="fill:#131010; stroke:none;" d="M668 361L669 362L668 361M670 361L671 362L670 361z"/>
<path style="fill:#720909; stroke:none;" d="M959 361L960 362L959 361M135 362L136 363L135 362M220 362L221 363L220 362M461.333 362.667C461.278 362.722 461.222 363.778 461.667 363.333C461.722 363.278 461.778 362.222 461.333 362.667M844 362L845 363L844 362M890 362L891 363L890 362z"/>
<path style="fill:#131010; stroke:none;" d="M1057.67 362.333C1057.22 362.778 1058.28 362.722 1058.33 362.667C1058.78 362.222 1057.72 362.278 1057.67 362.333z"/>
<path style="fill:#720909; stroke:none;" d="M118 363L119 364L118 363M136 363L137 364L136 363M219.333 363.667C219.278 363.722 219.222 364.778 219.667 364.333C219.722 364.278 219.778 363.222 219.333 363.667M246.333 363.667C246.278 363.722 246.222 364.778 246.667 364.333C246.722 364.278 246.778 363.222 246.333 363.667M252 363L253 364L252 363M368 363L368 368C368.722 365.974 368.722 365.026 368 363M467 363L468 364L467 363M816 363L817 364L816 363M838 363L839 364L838 363M891 363L892 364L891 363M137 364L138 365L137 364M223 364L224 365L223 364M501 364L502 365L501 364M638 364L638 368C638.6 366.268 638.6 365.732 638 364M845 364L846 365L845 364M892 364L893 365L892 364M121 365L122 366L121 365M138 365L139 366L138 365M253 365L254 366L253 365M500 365L501 366L500 365M513 365L513 373C514.18 370.078 514.424 367.826 513 365M615 365L616 366L615 365z"/>
<path style="fill:#131010; stroke:none;" d="M788 365L789 366L788 365z"/>
<path style="fill:#720909; stroke:none;" d="M815 365L816 366L815 365M839.333 365.667C839.278 365.722 839.222 366.778 839.667 366.333C839.722 366.278 839.778 365.222 839.333 365.667M893 365L894 366L893 365M957 365L958 366L957 365z"/>
<path style="fill:#131010; stroke:none;" d="M1054 365L1055 366L1054 365z"/>
<path style="fill:#720909; stroke:none;" d="M122 366L123 367L122 366M218 366L219 367L218 366M247 366L248 367L247 366M344 366L344 372C344.845 369.696 344.845 368.304 344 366M469 366L470 367L469 366M616 366L617 367L616 366M894 366L895 367L894 366M963 366L964 367L963 366z"/>
<path style="fill:#131010; stroke:none;" d="M1045 366L1046 367L1045 366z"/>
<path style="fill:#720909; stroke:none;" d="M254 367L255 368L254 367M464 367L465 368L464 367M470 367L471 368L470 367M515 367L516 368L515 367M541 367L542 368L541 367M814.333 367.667C814.278 367.722 814.222 368.778 814.667 368.333C814.722 368.278 814.778 367.222 814.333 367.667M887 367L888 368L887 367M962 367L963 368L962 367M125 368L126 369L125 368M140 368L141 369L140 368M347 368L348 369L347 368M372 368L373 369L372 368M407.333 368.667C407.278 368.722 407.222 369.778 407.667 369.333C407.722 369.278 407.778 368.222 407.333 368.667M465 368L466 369L465 368M471 368L472 369L471 368M516 368L517 369L516 368M536 368L537 369L536 368M840 368L841 369L840 368z"/>
<path style="fill:#131010; stroke:none;" d="M870 368C867.406 370.145 865.641 372.063 864 375C867.326 375.178 869.862 375.153 873 374L870 368z"/>
<path style="fill:#720909; stroke:none;" d="M888 368L889 369L888 368M961 368L962 369L961 368z"/>
<path style="fill:#131010; stroke:none;" d="M1018 368L1019 369L1018 368M1050 368L1051 369L1050 368z"/>
<path style="fill:#720909; stroke:none;" d="M126 369L127 370L126 369M221 369L222 370L221 369M248 369L249 370L248 369M255 369L256 370L255 369M348 369L349 370L348 369M367 369L368 370L367 369M400 369L401 370L400 369M472 369L473 370L472 369M496 369L497 370L496 369M517 369L518 370L517 369M540 369L541 370L540 369M898 369L899 370L898 369M960 369L961 370L960 369z"/>
<path style="fill:#131010; stroke:none;" d="M1048 369L1049 370L1048 369z"/>
<path style="fill:#720909; stroke:none;" d="M127 370L128 371L127 370M141 370L142 371L141 370M287.333 370.667C287.278 370.722 287.222 371.778 287.667 371.333C287.722 371.278 287.778 370.222 287.333 370.667M331.333 370.667C331.278 370.722 331.222 371.778 331.667 371.333C331.722 371.278 331.778 370.222 331.333 370.667M371 370L372 371L371 370M408 370C404.848 372.133 401.691 371.656 398 372C402.081 373.525 406.679 373 411 373C410.027 371.73 409.27 370.972 408 370M518 370L519 371L518 370M535 370L536 371L535 370M601 370L602 371L601 370M620 370L621 371L620 370M641 370L642 371L641 370M808 370L809 371L808 370M813 370L814 371L813 370M899 370L900 371L899 370M959 370L960 371L959 370M179 371L180 372L179 371M186 371L187 372L186 371M215 371L216 372L215 371M220.333 371.667C220.278 371.722 220.222 372.778 220.667 372.333C220.722 372.278 220.778 371.222 220.333 371.667M249.333 371.667C249.278 371.722 249.222 372.778 249.667 372.333C249.722 372.278 249.778 371.222 249.333 371.667M256 371L257 372L256 371M294 371L295 372L294 371M324 371L325 372L324 371M351 371L352 372L351 371M370 371L371 372L370 371M439 371L440 372L439 371M446 371L447 372L446 371M469 371L470 372L469 371M475 371L476 372L475 371M519.667 371.333C519.222 371.778 520.278 371.722 520.333 371.667C520.778 371.222 519.722 371.278 519.667 371.333M534 371L535 372L534 371M594.333 371.667C594.278 371.722 594.222 372.778 594.667 372.333C594.722 372.278 594.778 371.222 594.333 371.667M621 371L622 372L621 371M640 371L641 372L640 371M891 371L892 372L891 371M900.667 371.333C900.222 371.778 901.278 371.722 901.333 371.667C901.778 371.222 900.722 371.278 900.667 371.333M930 371L931 372L930 371M957 371L958 372L957 371z"/>
<path style="fill:#131010; stroke:none;" d="M994 371L995 372L994 371z"/>
<path style="fill:#720909; stroke:none;" d="M142.333 372.667C142.278 372.722 142.222 373.778 142.667 373.333C142.722 373.278 142.778 372.222 142.333 372.667M187 372C183.848 374.133 180.691 373.656 177 374C181.081 375.525 185.679 375 190 375L187 372M214 372L215 373L214 372M286 372L287 373L286 372M332 372L333 373L332 372M353 372L354 373L353 372M364 372L365 373L364 372M369 372L370 373L369 372M478 372L479 373L478 372M490 372L491 373L490 372M500 372L501 373L500 372M522 372L523 373L522 372M602 372L603 373L602 372M623.667 372.333C623.222 372.778 624.278 372.722 624.333 372.667C624.778 372.222 623.722 372.278 623.667 372.333M634 372L635 373L634 372M639 372L640 373L639 372M812.333 372.667C812.278 372.722 812.222 373.778 812.667 373.333C812.722 373.278 812.778 372.222 812.333 372.667M892 372L893 373L892 372z"/>
<path style="fill:#131010; stroke:none;" d="M1035 372L1036 373L1035 372z"/>
<path style="fill:#720909; stroke:none;" d="M130 373L131 374L130 373M257 373L258 374L257 373M285 374C289.081 375.525 293.679 375 298 375C294.09 373.032 289.318 373.992 285 374M333 373L334 374L333 373M346 373L347 374L346 373M358.667 373.333C358.222 373.778 359.278 373.722 359.333 373.667C359.778 373.222 358.722 373.278 358.667 373.333M473 373L474 374L473 373M498 373L499 374L498 373M514 373L515 374L514 373M525 373C526.764 373.703 528.083 373.884 530 374C528.236 373.297 526.917 373.116 525 373M536 373L537 374L536 373M593 373L594 374L593 373M603 373L604 374L603 373M616 373L617 374L616 373M628 373L631 374L628 373M638 373L639 374L638 373z"/>
<path style="fill:#131010; stroke:none;" d="M782 373C780.167 380.25 768.14 397.543 785 393C782.367 386.532 784.964 378.878 782 373z"/>
<path style="fill:#720909; stroke:none;" d="M922 373L923 374L922 373M953.667 373.333C953.222 373.778 954.278 373.722 954.333 373.667C954.778 373.222 953.722 373.278 953.667 373.333z"/>
<path style="fill:#131010; stroke:none;" d="M1031 373L1032 374L1031 373z"/>
<path style="fill:#720909; stroke:none;" d="M131 374L132 375L131 374M219 374L220 375L219 374M250 374L251 375L250 374M320 375C324.897 376.83 330.815 376 336 376C331.714 373.839 324.774 374.568 320 375M348 374L349 375L348 374M435 375C439.897 376.83 445.815 376 451 376C446.714 373.839 439.774 374.568 435 375M495 374L496 375L495 374M534 374L535 375L534 374M618 374L619 375L618 374M636 374L637 375L636 374M805 374L806 375L805 374M872 374L870 375C871.482 375.791 872.796 375.87 872 374M907 374C907.98 375.783 907.908 375.594 910 376L907 374z"/>
<path style="fill:#131010; stroke:none;" d="M1026 374L1027 375L1026 374z"/>
<path style="fill:#720909; stroke:none;" d="M259 375L260 376L259 375M352.667 375.333C352.222 375.778 353.278 375.722 353.333 375.667C353.778 375.222 352.722 375.278 352.667 375.333M362.667 375.333C362.222 375.778 363.278 375.722 363.333 375.667C363.778 375.222 362.722 375.278 362.667 375.333M480 375C483.521 376.316 487.267 376 491 376C487.479 374.684 483.733 375 480 375M521.667 375.333C521.222 375.778 522.278 375.722 522.333 375.667C522.778 375.222 521.722 375.278 521.667 375.333M531 375L532 376L531 375M590 375C594.356 376.628 599.389 376 604 376C599.644 374.372 594.611 375 590 375M605 375L606 376L605 375M622.667 375.333C622.222 375.778 623.278 375.722 623.333 375.667C623.778 375.222 622.722 375.278 622.667 375.333M633 375L634 376L633 375z"/>
<path style="fill:#131010; stroke:none;" d="M830 375L831 376L830 375z"/>
<path style="fill:#720909; stroke:none;" d="M898.667 375.333C898.222 375.778 899.278 375.722 899.333 375.667C899.778 375.222 898.722 375.278 898.667 375.333z"/>
<path style="fill:#131010; stroke:none;" d="M910 375L911 376L910 375z"/>
<path style="fill:#720909; stroke:none;" d="M921 375L922 376L921 375M132 376L133 377L132 376z"/>
<path style="fill:#131010; stroke:none;" d="M851 377L852 378L851 377M932 377L933 378L932 377M933 379L934 380L933 379M1001 379L1002 380L1001 379z"/>
<path style="fill:#720909; stroke:none;" d="M133 380L133 384C133.6 382.268 133.6 381.732 133 380z"/>
<path style="fill:#131010; stroke:none;" d="M994 380L995 381L994 380z"/>
<path style="fill:#720909; stroke:none;" d="M94 382L95 383L94 382z"/>
<path style="fill:#131010; stroke:none;" d="M940 383L941 384L940 383M946 384L947 385L946 384z"/>
<path style="fill:#720909; stroke:none;" d="M96 385L97 386L96 385z"/>
<path style="fill:#131010; stroke:none;" d="M833 385L834 386L833 385z"/>
<path style="fill:#720909; stroke:none;" d="M97 386L98 387L97 386M141 386L142 387L141 386z"/>
<path style="fill:#131010; stroke:none;" d="M831 386L832 387L831 386z"/>
<path style="fill:#720909; stroke:none;" d="M98 387L99 388L98 387M140.333 387.667C140.278 387.722 140.222 388.778 140.667 388.333C140.722 388.278 140.778 387.222 140.333 387.667z"/>
<path style="fill:#131010; stroke:none;" d="M802 387L803 388L802 387z"/>
<path style="fill:#720909; stroke:none;" d="M99 388L100 389L99 388z"/>
<path style="fill:#131010; stroke:none;" d="M799 388L800 389L799 388z"/>
<path style="fill:#720909; stroke:none;" d="M100 389L101 390L100 389M131 389L132 390L131 389M139 389L140 390L139 389M719.333 389.667C719.278 389.722 719.222 390.778 719.667 390.333C719.722 390.278 719.778 389.222 719.333 389.667M783.333 389.667C783.278 389.722 783.222 390.778 783.667 390.333C783.722 390.278 783.778 389.222 783.333 389.667M130 390L131 391L130 390z"/>
<path style="fill:#131010; stroke:none;" d="M794 390L795 391L794 390z"/>
<path style="fill:#720909; stroke:none;" d="M103 391L104 392L103 391M129 391L130 392L129 391M105 392L106 393L105 392M128 392L129 393L128 392M707 392L708 393L707 392z"/>
<path style="fill:#131010; stroke:none;" d="M816 392L817 393L816 392z"/>
<path style="fill:#720909; stroke:none;" d="M107 393L108 394L107 393M126 393L127 394L126 393M720 393L721 394L720 393z"/>
<path style="fill:#131010; stroke:none;" d="M811.333 393.667C811.278 393.722 811.222 394.778 811.667 394.333C811.722 394.278 811.778 393.222 811.333 393.667z"/>
<path style="fill:#720909; stroke:none;" d="M110 394L113 395L110 394M123 394L124 395L123 394M134.667 394.333C134.222 394.778 135.278 394.722 135.333 394.667C135.778 394.222 134.722 394.278 134.667 394.333M706 394L707 395L706 394z"/>
<path style="fill:#131010; stroke:none;" d="M761 395L762 396L761 395M808 395L809 396L808 395z"/>
<path style="fill:#720909; stroke:none;" d="M131.667 396.333C131.222 396.778 132.278 396.722 132.333 396.667C132.778 396.222 131.722 396.278 131.667 396.333M98 397L99 398L98 397M703 397L704 398L703 397M102.667 398.333C102.222 398.778 103.278 398.722 103.333 398.667C103.778 398.222 102.722 398.278 102.667 398.333M126.667 398.333C126.222 398.778 127.278 398.722 127.333 398.667C127.778 398.222 126.722 398.278 126.667 398.333M108.667 399.333C108.222 399.778 109.278 399.722 109.333 399.667C109.778 399.222 108.722 399.278 108.667 399.333M122.667 399.333C122.222 399.778 123.278 399.722 123.333 399.667C123.778 399.222 122.722 399.278 122.667 399.333z"/>
<path style="fill:#131010; stroke:none;" d="M796 399L797 400L796 399M789 401L790 402L789 401z"/>
</svg>
