<?xml version="1.0" encoding="UTF-8" standalone="no"?>
<!-- Created with Inkscape (http://www.inkscape.org/) -->

<svg
   width="88.130745mm"
   height="102.55214mm"
   viewBox="0 0 88.130745 102.55214"
   version="1.1"
   id="svg5"
   xml:space="preserve"
   inkscape:version="1.2.1 (9c6d41e410, 2022-07-14)"
   sodipodi:docname="drawing.svg"
   xmlns:inkscape="http://www.inkscape.org/namespaces/inkscape"
   xmlns:sodipodi="http://sodipodi.sourceforge.net/DTD/sodipodi-0.dtd"
   xmlns="http://www.w3.org/2000/svg"
   xmlns:svg="http://www.w3.org/2000/svg"><sodipodi:namedview
     id="namedview7"
     pagecolor="#ffffff"
     bordercolor="#666666"
     borderopacity="1.0"
     inkscape:showpageshadow="2"
     inkscape:pageopacity="0.0"
     inkscape:pagecheckerboard="0"
     inkscape:deskcolor="#d1d1d1"
     inkscape:document-units="mm"
     showgrid="false"
     inkscape:zoom="0.75455247"
     inkscape:cx="416.14071"
     inkscape:cy="359.15329"
     inkscape:window-width="1920"
     inkscape:window-height="1027"
     inkscape:window-x="-8"
     inkscape:window-y="-8"
     inkscape:window-maximized="1"
     inkscape:current-layer="svg5"><inkscape:page
       x="0"
       y="0"
       width="88.130745"
       height="102.55214"
       id="page1191" /><inkscape:page
       x="189.37706"
       y="-25.516138"
       width="132.29166"
       height="132.29167"
       id="page1193" /></sodipodi:namedview><defs
     id="defs2"><clipPath
       clipPathUnits="userSpaceOnUse"
       id="clipPath1065"><path
         d="M 0,0 H 1562.5 V 1562.5 H 0 Z"
         clip-rule="evenodd"
         id="path1063" /></clipPath><clipPath
       clipPathUnits="userSpaceOnUse"
       id="clipPath1077"><path
         d="M 0,0 H 1562.5 V 1562.5 H 0 Z"
         clip-rule="evenodd"
         id="path1075" /></clipPath><clipPath
       clipPathUnits="userSpaceOnUse"
       id="clipPath1089"><path
         d="M 0,0 H 1562.5 V 1593.75 H 0 Z"
         id="path1087" /></clipPath><clipPath
       clipPathUnits="userSpaceOnUse"
       id="clipPath1095"><path
         d="M 0,0 H 1562.5 V 1562.5 H 0 Z"
         id="path1093" /></clipPath><clipPath
       clipPathUnits="userSpaceOnUse"
       id="clipPath1101"><path
         d="M 0,0 H 1562.5 V 1562.5 H 0 Z"
         id="path1099" /></clipPath><clipPath
       clipPathUnits="userSpaceOnUse"
       id="clipPath1107"><path
         d="M 277.44498,195.00415 H 1318.3594 V 1406.6936 H 277.44498 Z"
         id="path1105" /></clipPath><clipPath
       clipPathUnits="userSpaceOnUse"
       id="clipPath1113"><path
         d="M 797.90222,195.00415 1318.3594,497.81561 V 1103.4385 L 797.90222,1406.25 277.44498,1103.4385 V 497.81561 Z"
         id="path1111" /></clipPath><clipPath
       clipPathUnits="userSpaceOnUse"
       id="clipPath1125"><path
         d="M 0,0 H 1562.5 V 1562.5 H 0 Z"
         clip-rule="evenodd"
         id="path1123" /></clipPath><clipPath
       clipPathUnits="userSpaceOnUse"
       id="clipPath1133"><path
         d="M 0,0 H 850 V 828 H 0 Z"
         id="path1131" /></clipPath><clipPath
       clipPathUnits="userSpaceOnUse"
       id="clipPath1137"><path
         d="M 3.4840393,-75.355255 940.40369,-42.372417 908.08044,875.80884 -28.839142,842.82605 Z"
         id="path1135" /></clipPath><clipPath
       clipPathUnits="userSpaceOnUse"
       id="clipPath1141"><path
         d="M 3.4840393,-75.355255 940.40369,-42.372417 908.08044,875.80884 -28.839142,842.82605 Z"
         id="path1139" /></clipPath><clipPath
       clipPathUnits="userSpaceOnUse"
       id="clipPath1089-0"><path
         d="M 0,0 H 1562.5 V 1593.75 H 0 Z"
         id="path1087-5" /></clipPath><clipPath
       clipPathUnits="userSpaceOnUse"
       id="clipPath1095-9"><path
         d="M 0,0 H 1562.5 V 1562.5 H 0 Z"
         id="path1093-3" /></clipPath><clipPath
       clipPathUnits="userSpaceOnUse"
       id="clipPath1101-2"><path
         d="M 0,0 H 1562.5 V 1562.5 H 0 Z"
         id="path1099-8" /></clipPath><clipPath
       clipPathUnits="userSpaceOnUse"
       id="clipPath1107-9"><path
         d="M 277.44498,195.00415 H 1318.3594 V 1406.6936 H 277.44498 Z"
         id="path1105-8" /></clipPath><clipPath
       clipPathUnits="userSpaceOnUse"
       id="clipPath1113-2"><path
         d="M 797.90222,195.00415 1318.3594,497.81561 V 1103.4385 L 797.90222,1406.25 277.44498,1103.4385 V 497.81561 Z"
         id="path1111-8" /></clipPath><clipPath
       clipPathUnits="userSpaceOnUse"
       id="clipPath1125-7"><path
         d="M 0,0 H 1562.5 V 1562.5 H 0 Z"
         clip-rule="evenodd"
         id="path1123-3" /></clipPath><clipPath
       clipPathUnits="userSpaceOnUse"
       id="clipPath1133-3"><path
         d="M 0,0 H 850 V 828 H 0 Z"
         id="path1131-7" /></clipPath><clipPath
       clipPathUnits="userSpaceOnUse"
       id="clipPath1137-1"><path
         d="M 3.4840393,-75.355255 940.40369,-42.372417 908.08044,875.80884 -28.839142,842.82605 Z"
         id="path1135-6" /></clipPath><clipPath
       clipPathUnits="userSpaceOnUse"
       id="clipPath1141-9"><path
         d="M 3.4840393,-75.355255 940.40369,-42.372417 908.08044,875.80884 -28.839142,842.82605 Z"
         id="path1139-1" /></clipPath></defs><g
     inkscape:label="Layer 1"
     inkscape:groupmode="layer"
     id="layer1"
     transform="translate(-30.62294,-25.516138)" /><g
     id="g1083"
     transform="matrix(0.08466666,0,0,0.08466666,-23.49034,-16.51035)"><g
       id="g1085"
       clip-path="url(#clipPath1089-0)"><g
         id="g1091"
         clip-path="url(#clipPath1095-9)"><g
           id="g1097"
           clip-path="url(#clipPath1101-2)"><g
             id="g1103"
             clip-path="url(#clipPath1107-9)"><g
               id="g1109"
               clip-path="url(#clipPath1113-2)"><g
                 id="g1115"
                 transform="matrix(4.066072,0,0,4.066072,277.44498,195.00415)"><path
                   d="M 0,0 H 256 V 298 H 0 Z"
                   style="fill:#760000;fill-opacity:1;fill-rule:nonzero;stroke:none"
                   id="path1117" /></g></g></g></g></g></g></g><g
     id="g1119"
     transform="matrix(0.08466666,0,0,0.08466666,-23.49034,-16.51035)"><g
       id="g1121"
       clip-path="url(#clipPath1125-7)"><g
         id="g1127"
         transform="translate(414,401)"><g
           id="g1129" /><g
           id="g1155"><g
             clip-path="url(#clipPath1133-3)"
             opacity="0.42"
             id="g1153"><g
               id="g1151"><g
                 clip-path="url(#clipPath1137-1)"
                 id="g1149"><g
                   clip-path="url(#clipPath1141-9)"
                   id="g1147"><g
                     transform="matrix(3.118999,0.10979964,-0.10979964,3.118999,3.4836121,-75.343048)"
                     id="g1145"><path
                       d="m 177,44 c 1.737,-5.976299 5.46201,-10.630402 6,-17 -29.446,6.358398 -61.153,32.581902 -64,63 -1.629,-2.6661 -3.588,-14.277702 -5.8,-15.2388 C 109.693,73.238098 98.399399,87.595497 96.000702,90 77.585503,108.459 66,130.923 66,157 63.6283,151.94501 64.713097,145.498 59,143 57.634201,185.644 20.0266,217.46201 9,256 22.232,253.052 27.4687,237.379 33.618,227 51.126499,197.44901 72.547203,170.317 90,141 c -6.669296,20.562 -26.126701,36.17799 -31,58 19.7425,-4.011 52.641,-16.679 66,-32 -4.852,-1.235 -10.011,-1.535 -15,-2 9.73,-8.866 26.16,-10.91 38,-16.338 14.897,-6.83 28.855,-19.52 39.677,-31.662 5.485,-6.155 15.76,-15.224 15.323,-24 -10.87601,3.876198 -20.771,2.005402 -32,2 12.278,-6.297897 28.808,-5.126099 39.979,-12.9245 9.61699,-6.714103 12.991,-19.9621 22.02401,-27.809501 C 237.388,50.456402 254.655,45.7425 255.133,39.8214 255.787,31.7258 239.78999,27.841101 234,26.456699 212.383,21.2878 191.285,25.583099 177,44 m 16,-11 -1,1 1,-1 m 56,1 -1,1 1,-1 m -42,17 c -4.543,11.3624 -12.26401,15.981102 -24,18 7.07899,-6.5424 16.158,-12.2925 24,-18 m -59,9 c -4.71899,5.971802 -10.771,14.7939 -17,19 3.05299,-8.471703 9.11999,-14.787804 17,-19 m -24.333,14.666702 c 0.055,0.0555 0.111,1.1111 -0.334,0.666596 -0.055,-0.0555 -0.111,-1.111 0.334,-0.666596 m -23,23 c 0.055,0.0555 0.111,1.1111 -0.334,0.666596 -0.055,-0.0555 -0.111,-1.1111 0.334,-0.666596 M 99,101 c -0.349998,7.554 -4.0774,12.777 -8,19 -1.526703,-6.609 3.6306,-14.379 8,-19 m 95,5 -1,1 1,-1 m -21,2 c -6.35899,10.273 -25.26,11.171 -32,1 10.91299,1.016 21.224,1.517 32,-1 m -63,12 -1,1 1,-1 m -22.333298,2.667 c 0.0555,0.055 0.1111,1.111 -0.333404,0.666 -0.0555,-0.055 -0.1111,-1.111 0.333404,-0.666 M 75,124 70,139 c -0.949203,-5.183 1.987198,-10.881 5,-15 m 102,0 -1,1 1,-1 m -74,4 -1,1 1,-1 m 39,4 -1,1 1,-1 m -6,5 c -6.492,10.858 -20.031,8 -31,8 7.38,-5.55499 21.934,-5.76801 31,-8 m -44,3 -1,1 1,-1 m 45,0 -1,1 1,-1 m -50,11 -1,1 1,-1 m -8,13 -1,1 1,-1 m -61,91 c 6.565201,3.939 16.394699,-1.41701 23,-3.672 16.618301,-5.673 51.312302,-29.64399 68.97,-22.15899 C 132.96699,238.91701 75.221497,264.341 87.829903,277.06 95.337898,284.634 123.846,274.12701 133,272.43799 163.826,266.75 193.233,254.786 223,245.35699 238.64,240.403 257.297,237.998 272,231 257.961,227.371 237.39101,238.002 224,241.93401 184.061,253.662 141.293,274.591 99,275.95801 87.709503,276.323 88.834503,269.987 96.043701,263.328 103.468,256.47 130.73599,239.633 113.834,228.284 106.458,223.33099 94.767502,226.799 87,229.067 63.946098,235.798 40.245602,245.965 18,255 Z"
                       style="fill:#ffffff;fill-opacity:1;fill-rule:nonzero;stroke:none"
                       id="path1143" /></g></g></g></g></g></g></g><g
         id="g1157"
         transform="matrix(3.125,0,0,3.125,302.90707,890.45526)"><text
           xml:space="preserve"
           transform="translate(0.015625,49)"
           style="font-variant:normal;font-weight:bold;font-size:58.66px;font-family:CourierPS;-inkscape-font-specification:CourierPSProGrk-Bold;writing-mode:lr-tb;fill:#ffffff;fill-opacity:1;fill-rule:nonzero;stroke:none"
           id="text1161"><tspan
             x="0 35.193726 70.387451 105.58118 140.7749 175.96863 211.16235 246.35608 281.5498"
             y="0"
             sodipodi:role="line"
             id="tspan1159">PSICOSTAT</tspan></text></g><g
         id="g1163"
         transform="matrix(3.125,0,0,3.125,426.93048,313.61914)"><text
           xml:space="preserve"
           transform="translate(0,180)"
           style="font-variant:normal;font-weight:normal;font-size:172.79px;font-family:NotoSans;-inkscape-font-specification:NotoSans-Regular;writing-mode:lr-tb;fill:#ffffff;fill-opacity:1;fill-rule:nonzero;stroke:none"
           id="text1167"><tspan
             x="0 98.485306"
             y="0"
             sodipodi:role="line"
             id="tspan1165">ΣΨ</tspan></text></g></g></g></svg>
