<?xml version="1.0" standalone="yes"?>
<svg xmlns="http://www.w3.org/2000/svg" width="300" height="294">
<path style="fill:#0f0f0f; stroke:none;" d="M177 44C178.737 38.0237 182.462 33.3696 183 27C153.554 33.3584 121.847 59.5819 119 90C117.371 87.3339 115.412 75.7223 113.2 74.7612C109.693 73.2381 98.3994 87.5955 96.0007 90C77.5855 108.459 66 130.923 66 157C63.6283 151.945 64.7131 145.498 59 143C57.6342 185.644 20.0266 217.462 9 256C22.232 253.052 27.4687 237.379 33.618 227C51.1265 197.449 72.5472 170.317 90 141C83.3307 161.562 63.8733 177.178 59 199C78.7425 194.989 111.641 182.321 125 167C120.148 165.765 114.989 165.465 110 165C119.73 156.134 136.16 154.09 148 148.662C162.897 141.832 176.855 129.142 187.677 117C193.162 110.845 203.437 101.776 203 93C192.124 96.8762 182.229 95.0054 171 95C183.278 88.7021 199.808 89.8739 210.979 82.0755C220.596 75.3614 223.97 62.1134 233.003 54.266C237.388 50.4564 254.655 45.7425 255.133 39.8214C255.787 31.7258 239.79 27.8411 234 26.4567C212.383 21.2878 191.285 25.5831 177 44M193 33L192 34L193 33M249 34L248 35L249 34M207 51C202.457 62.3624 194.736 66.9811 183 69C190.079 62.4576 199.158 56.7075 207 51M148 60C143.281 65.9718 137.229 74.7939 131 79C134.053 70.5283 140.12 64.2122 148 60M123.667 74.6667C123.722 74.7222 123.778 75.7778 123.333 75.3333C123.278 75.2778 123.222 74.2223 123.667 74.6667M100.667 97.6667C100.722 97.7222 100.778 98.7778 100.333 98.3333C100.278 98.2778 100.222 97.2222 100.667 97.6667M99 101C98.65 108.554 94.9226 113.777 91 120C89.4733 113.391 94.6306 105.621 99 101M194 106L193 107L194 106M173 108C166.641 118.273 147.74 119.171 141 109C151.913 110.016 162.224 110.517 173 108M110 120L109 121L110 120M87.6667 122.667C87.7222 122.722 87.7778 123.778 87.3333 123.333C87.2778 123.278 87.2222 122.222 87.6667 122.667M75 124L70 139C69.0508 133.817 71.9872 128.119 75 124M177 124L176 125L177 124M103 128L102 129L103 128M142 132L141 133L142 132M136 137C129.508 147.858 115.969 145 105 145C112.38 139.445 126.934 139.232 136 137M92 140L91 141L92 140M137 140L136 141L137 140M87 151L86 152L87 151M79 164L78 165L79 164M18 255C24.5652 258.939 34.3947 253.583 41 251.328C57.6183 245.655 92.3123 221.684 109.97 229.169C132.967 238.917 75.2215 264.341 87.8299 277.06C95.3379 284.634 123.846 274.127 133 272.438C163.826 266.75 193.233 254.786 223 245.357C238.64 240.403 257.297 237.998 272 231C257.961 227.371 237.391 238.002 224 241.934C184.061 253.662 141.293 274.591 99 275.958C87.7095 276.323 88.8345 269.987 96.0437 263.328C103.468 256.47 130.736 239.633 113.834 228.284C106.458 223.331 94.7675 226.799 87 229.067C63.9461 235.798 40.2456 245.965 18 255z"/>
</svg>
